<svg xmlns="http://www.w3.org/2000/svg" xmlns:xlink="http://www.w3.org/1999/xlink" width="48" zoomAndPan="magnify" viewBox="0 0 36 36.000001" height="48" preserveAspectRatio="xMidYMid meet" version="1.0"><path fill="#ffffff" d="M 17.996094 3.242188 C 17.996094 3.253906 17.855469 3.417969 17.679688 3.605469 C 17.503906 3.796875 17.238281 4.09375 17.09375 4.265625 C 16.945312 4.441406 16.597656 4.824219 16.316406 5.121094 C 15.726562 5.746094 14.878906 6.699219 14.726562 6.90625 C 14.667969 6.984375 14.519531 7.164062 14.394531 7.304688 C 14.242188 7.476562 14.15625 7.597656 14.136719 7.671875 C 14.121094 7.730469 14.089844 7.832031 14.070312 7.890625 C 13.972656 8.183594 13.941406 8.433594 13.953125 8.796875 C 13.972656 9.214844 14.015625 9.375 14.207031 9.679688 C 14.390625 9.972656 14.898438 10.472656 15.101562 10.558594 C 15.140625 10.574219 15.191406 10.605469 15.214844 10.621094 C 15.378906 10.75 16.066406 11.03125 16.59375 11.1875 C 17.21875 11.371094 18.285156 11.566406 18.46875 11.53125 C 18.597656 11.507812 18.648438 11.445312 19.332031 10.417969 C 20.378906 8.847656 20.726562 8.398438 21.464844 7.648438 L 21.839844 7.269531 L 21.714844 7.140625 C 21.648438 7.070312 21.460938 6.875 21.304688 6.707031 C 21.144531 6.539062 20.828125 6.199219 20.601562 5.949219 C 20.375 5.699219 19.992188 5.285156 19.746094 5.023438 C 19.503906 4.765625 19.203125 4.4375 19.074219 4.292969 C 18.75 3.9375 18.050781 3.222656 18.019531 3.222656 C 18.007812 3.222656 17.996094 3.230469 17.996094 3.242188 M 25.011719 3.820312 C 24.949219 3.828125 24.890625 3.84375 24.875 3.855469 C 24.820312 3.910156 24.800781 4.191406 24.777344 5.445312 C 24.746094 7.035156 24.769531 7.816406 24.855469 8.042969 C 25.027344 8.496094 25.824219 9.484375 26.710938 10.347656 C 27.378906 10.996094 27.765625 11.277344 27.894531 11.210938 C 27.976562 11.164062 28.058594 10.886719 28.085938 10.539062 C 28.105469 10.320312 28.109375 9.371094 28.097656 7.808594 C 28.082031 5.339844 28.046875 3.96875 28 3.882812 C 27.980469 3.851562 27.925781 3.832031 27.804688 3.816406 C 27.625 3.800781 25.203125 3.800781 25.011719 3.820312 M 22.382812 6.730469 C 22.359375 6.757812 22.367188 6.765625 22.433594 6.765625 C 22.484375 6.765625 22.515625 6.753906 22.507812 6.738281 C 22.492188 6.691406 22.417969 6.6875 22.382812 6.730469 M 22.226562 6.886719 C 22.21875 6.902344 22.222656 6.914062 22.238281 6.914062 C 22.253906 6.914062 22.273438 6.902344 22.28125 6.886719 C 22.292969 6.871094 22.289062 6.859375 22.273438 6.859375 C 22.257812 6.859375 22.238281 6.871094 22.226562 6.886719 M 22.121094 6.988281 C 22.113281 6.996094 22.105469 7.019531 22.105469 7.035156 C 22.105469 7.050781 22.117188 7.050781 22.136719 7.03125 C 22.152344 7.011719 22.164062 6.992188 22.15625 6.984375 C 22.148438 6.976562 22.132812 6.976562 22.121094 6.988281 M 22.160156 7.3125 C 22.140625 7.335938 22.128906 7.363281 22.136719 7.371094 C 22.144531 7.378906 22.167969 7.363281 22.1875 7.339844 C 22.207031 7.316406 22.214844 7.292969 22.207031 7.285156 C 22.199219 7.277344 22.179688 7.289062 22.160156 7.3125 M 22.019531 7.609375 C 22 7.65625 21.847656 7.960938 21.683594 8.277344 C 21.515625 8.59375 21.304688 9.015625 21.214844 9.214844 C 20.855469 9.996094 20.523438 10.738281 20.476562 10.867188 C 20.449219 10.945312 20.390625 11.085938 20.34375 11.183594 C 20.300781 11.285156 20.253906 11.421875 20.242188 11.492188 C 20.222656 11.621094 20.226562 11.621094 20.316406 11.640625 C 20.445312 11.671875 22.40625 11.65625 22.984375 11.625 C 23.683594 11.582031 25.273438 11.558594 25.273438 11.589844 C 25.273438 11.605469 25.242188 11.628906 25.203125 11.648438 C 25.097656 11.695312 24.371094 11.917969 24.15625 11.964844 C 24.050781 11.992188 23.777344 12.054688 23.550781 12.105469 C 23.324219 12.160156 23.015625 12.222656 22.867188 12.246094 C 22.71875 12.269531 22.570312 12.300781 22.535156 12.3125 C 22.5 12.324219 22.398438 12.34375 22.308594 12.355469 C 22.21875 12.367188 22.0625 12.390625 21.964844 12.414062 C 21.800781 12.453125 21.363281 12.515625 20.738281 12.589844 C 19.832031 12.699219 19.800781 12.707031 19.710938 12.886719 C 19.632812 13.035156 19.480469 13.5625 19.308594 14.285156 C 19.222656 14.632812 19.136719 14.984375 19.113281 15.070312 C 19.054688 15.292969 18.917969 15.910156 18.753906 16.695312 C 18.714844 16.882812 18.664062 17.121094 18.640625 17.21875 C 18.617188 17.316406 18.59375 17.5 18.585938 17.621094 L 18.570312 17.847656 L 18.660156 17.894531 C 18.710938 17.917969 18.902344 17.957031 19.097656 17.980469 C 19.289062 18.003906 19.496094 18.03125 19.554688 18.046875 C 19.617188 18.058594 19.96875 18.085938 20.339844 18.101562 C 21.101562 18.140625 23.9375 18.121094 24.40625 18.074219 C 24.554688 18.058594 24.902344 18.027344 25.175781 18.003906 C 25.722656 17.957031 26.894531 17.828125 26.945312 17.8125 C 26.960938 17.804688 27.136719 17.78125 27.332031 17.753906 C 27.765625 17.699219 29.171875 17.453125 29.929688 17.296875 C 30.503906 17.179688 30.777344 17.144531 30.859375 17.175781 C 30.898438 17.191406 30.898438 17.199219 30.863281 17.21875 C 30.804688 17.257812 29.210938 17.773438 28.316406 18.042969 C 27.417969 18.3125 26.707031 18.484375 24.984375 18.84375 C 23.773438 19.097656 21.777344 19.402344 20.492188 19.53125 C 20.191406 19.5625 19.921875 19.59375 19.898438 19.601562 C 19.875 19.609375 19.621094 19.632812 19.335938 19.65625 C 18.714844 19.707031 18.300781 19.769531 18.253906 19.816406 C 18.199219 19.871094 18.167969 20.609375 18.152344 22.132812 C 18.140625 22.878906 18.128906 23.847656 18.121094 24.285156 C 18.109375 25.0625 18.109375 25.082031 18.15625 24.988281 C 18.203125 24.894531 18.207031 24.890625 18.382812 24.894531 C 18.480469 24.894531 18.648438 24.921875 18.757812 24.957031 C 19.035156 25.039062 19.488281 25.320312 19.71875 25.554688 L 19.914062 25.746094 L 20.765625 25.742188 C 22.28125 25.734375 24.628906 25.578125 25.503906 25.429688 C 26.347656 25.285156 27.171875 25.105469 27.898438 24.917969 C 28.246094 24.824219 28.480469 24.796875 28.425781 24.847656 C 28.359375 24.917969 27.019531 25.539062 26.554688 25.722656 C 26.492188 25.746094 26.40625 25.78125 26.359375 25.800781 C 25.851562 26.019531 24.515625 26.445312 23.824219 26.613281 C 23.628906 26.660156 23.378906 26.722656 23.273438 26.753906 C 23.167969 26.78125 23.007812 26.820312 22.917969 26.835938 C 22.824219 26.851562 22.710938 26.878906 22.65625 26.894531 C 22.605469 26.910156 22.496094 26.933594 22.410156 26.945312 C 22.324219 26.957031 22.15625 26.988281 22.035156 27.011719 C 21.453125 27.128906 21.230469 27.167969 20.8125 27.222656 C 20.566406 27.253906 20.347656 27.285156 20.328125 27.292969 C 20.28125 27.3125 20.257812 28.105469 20.257812 29.71875 L 20.257812 30.96875 L 30.203125 30.953125 L 30.289062 30.871094 L 30.371094 30.785156 L 30.398438 29.972656 C 30.410156 29.527344 30.4375 27.953125 30.453125 26.476562 C 30.480469 23.523438 30.519531 21.875 30.5625 21.601562 C 30.609375 21.328125 30.734375 21.113281 30.929688 20.972656 C 31.144531 20.820312 31.429688 20.761719 32.160156 20.71875 C 33.183594 20.660156 33.9375 20.601562 33.964844 20.578125 C 34 20.542969 33.90625 20.421875 33.359375 19.820312 C 33.085938 19.519531 32.609375 18.996094 32.296875 18.652344 C 31.988281 18.308594 31.558594 17.839844 31.347656 17.609375 C 31.136719 17.378906 30.855469 17.074219 30.726562 16.929688 C 30.597656 16.789062 30.21875 16.378906 29.886719 16.015625 C 29.550781 15.65625 29.148438 15.214844 28.992188 15.042969 C 28.835938 14.867188 28.582031 14.59375 28.425781 14.4375 C 28.183594 14.183594 27.925781 13.90625 26.816406 12.691406 C 26.550781 12.402344 26.285156 12.109375 26.019531 11.820312 L 25.121094 10.839844 C 24.941406 10.644531 24.664062 10.34375 24.5 10.179688 C 24.339844 10.011719 23.921875 9.558594 23.570312 9.171875 C 23.21875 8.785156 22.792969 8.320312 22.621094 8.140625 C 22.449219 7.957031 22.253906 7.742188 22.183594 7.664062 L 22.058594 7.515625 Z M 12.140625 9.765625 C 12.097656 9.816406 11.832031 10.105469 11.550781 10.40625 C 11.269531 10.707031 10.886719 11.125 10.695312 11.335938 C 10.507812 11.546875 10.167969 11.910156 9.941406 12.148438 C 9.71875 12.382812 9.515625 12.601562 9.492188 12.636719 C 9.460938 12.6875 9.460938 12.742188 9.496094 13.046875 C 9.554688 13.554688 9.640625 13.78125 9.914062 14.132812 C 10.050781 14.316406 10.503906 14.753906 10.855469 15.050781 C 11.101562 15.261719 11.660156 15.667969 11.742188 15.699219 C 11.765625 15.707031 11.835938 15.746094 11.894531 15.785156 C 11.996094 15.851562 12.089844 15.90625 12.5625 16.160156 C 12.742188 16.257812 13.8125 16.722656 14.042969 16.804688 C 14.121094 16.832031 14.386719 16.921875 14.636719 17.007812 C 14.886719 17.09375 15.128906 17.175781 15.175781 17.191406 C 15.300781 17.242188 15.789062 17.355469 15.863281 17.355469 C 15.949219 17.355469 15.972656 17.304688 16.011719 17.054688 C 16.085938 16.605469 16.3125 15.867188 16.585938 15.207031 C 16.71875 14.890625 17.144531 13.953125 17.429688 13.347656 C 17.546875 13.105469 17.640625 12.882812 17.640625 12.847656 C 17.640625 12.773438 17.59375 12.753906 17.324219 12.738281 C 17.203125 12.730469 16.960938 12.699219 16.785156 12.671875 C 16.613281 12.644531 16.394531 12.613281 16.304688 12.605469 C 16.09375 12.582031 15.648438 12.476562 15.324219 12.367188 C 15.183594 12.324219 15.058594 12.285156 15.042969 12.285156 C 14.988281 12.285156 14.261719 11.945312 14.085938 11.835938 C 13.546875 11.503906 12.945312 10.941406 12.648438 10.496094 C 12.453125 10.203125 12.265625 9.835938 12.265625 9.742188 C 12.265625 9.644531 12.238281 9.652344 12.140625 9.765625 M 7.476562 15.300781 C 7.460938 15.320312 7.378906 15.484375 7.292969 15.664062 C 6.933594 16.425781 6.789062 16.84375 6.597656 17.6875 C 6.527344 17.992188 6.523438 18.03125 6.523438 18.886719 L 6.523438 19.765625 L 6.613281 20.089844 C 6.742188 20.5625 6.824219 20.777344 7.015625 21.140625 C 7.449219 21.984375 8.207031 22.734375 9.261719 23.386719 C 9.625 23.609375 10.367188 23.96875 10.875 24.171875 C 11.519531 24.425781 12.855469 24.796875 13.617188 24.9375 C 14.609375 25.113281 14.726562 25.132812 15.128906 25.144531 L 15.554688 25.160156 L 15.539062 24.972656 C 15.527344 24.867188 15.5 24.660156 15.476562 24.507812 C 15.378906 23.882812 15.347656 21.953125 15.421875 20.96875 C 15.445312 20.671875 15.464844 20.214844 15.464844 19.949219 C 15.464844 19.4375 15.464844 19.425781 15.324219 19.421875 C 15.207031 19.421875 14.28125 19.261719 13.960938 19.1875 C 13.359375 19.050781 12.648438 18.804688 12.113281 18.554688 C 10.925781 17.996094 10.296875 17.609375 9.335938 16.847656 C 8.9375 16.535156 8.695312 16.316406 7.914062 15.585938 C 7.726562 15.40625 7.554688 15.261719 7.539062 15.261719 C 7.519531 15.261719 7.492188 15.277344 7.476562 15.300781 M 3.296875 19.347656 C 2.382812 20.3125 2.210938 20.515625 2.210938 20.617188 L 2.210938 20.699219 L 2.394531 20.679688 C 2.816406 20.636719 3.226562 20.609375 3.394531 20.609375 C 3.492188 20.609375 3.589844 20.597656 3.609375 20.585938 C 3.644531 20.5625 3.667969 20.453125 3.726562 20.058594 C 3.820312 19.421875 3.878906 19.105469 3.945312 18.863281 C 3.988281 18.71875 4.015625 18.597656 4.011719 18.597656 C 4.007812 18.597656 3.683594 18.933594 3.296875 19.347656 M 6.769531 24.976562 C 6.75 25.039062 6.800781 25.210938 6.988281 25.746094 C 7.027344 25.851562 7.082031 26.011719 7.113281 26.101562 C 7.144531 26.191406 7.179688 26.277344 7.191406 26.292969 C 7.207031 26.3125 7.222656 26.355469 7.230469 26.394531 C 7.257812 26.523438 7.496094 27.054688 7.695312 27.433594 C 8.410156 28.796875 9.035156 29.675781 10.039062 30.742188 L 10.253906 30.96875 L 15.453125 30.96875 L 15.472656 30.589844 C 15.484375 30.382812 15.492188 29.816406 15.492188 29.332031 C 15.492188 28.84375 15.5 28.234375 15.507812 27.972656 L 15.527344 27.496094 L 15.667969 27.457031 L 15.601562 27.4375 C 15.5625 27.429688 15.382812 27.417969 15.199219 27.417969 C 14.636719 27.410156 13.53125 27.238281 12.667969 27.015625 C 12.53125 26.980469 12.289062 26.917969 12.128906 26.878906 C 11.554688 26.730469 9.789062 26.152344 9.578125 26.042969 C 9.546875 26.027344 9.433594 25.980469 9.320312 25.9375 C 9.207031 25.898438 9.0625 25.84375 9 25.816406 C 8.941406 25.789062 8.632812 25.652344 8.3125 25.515625 C 7.996094 25.378906 7.59375 25.203125 7.417969 25.125 C 7.101562 24.984375 6.890625 24.90625 6.820312 24.90625 C 6.800781 24.90625 6.777344 24.9375 6.769531 24.976562 M 18.324219 27.523438 C 18.304688 27.589844 18.316406 27.628906 18.34375 27.601562 C 18.355469 27.589844 18.355469 27.554688 18.351562 27.519531 L 18.339844 27.453125 Z M 5.601562 29.363281 C 5.597656 29.433594 5.660156 29.660156 5.695312 29.699219 C 5.710938 29.722656 5.761719 29.816406 5.808594 29.90625 C 5.851562 30 5.898438 30.078125 5.910156 30.082031 C 5.925781 30.089844 5.957031 30.144531 5.988281 30.207031 C 6.117188 30.472656 6.46875 30.96875 6.527344 30.96875 C 6.574219 30.96875 6.558594 30.941406 6.394531 30.691406 C 6.328125 30.589844 6.242188 30.457031 6.207031 30.394531 C 6.167969 30.328125 6.089844 30.203125 6.035156 30.113281 C 5.925781 29.941406 5.769531 29.660156 5.664062 29.453125 C 5.628906 29.382812 5.601562 29.34375 5.601562 29.363281 " fill-opacity="1" fill-rule="evenodd"/></svg>